# xmcd
#
# Track frame offsets:
#	150
#	16067
#	33532
#	48992
#	65790
#	83770
#	103655
#	119277
#	134940
#	152087
#	167762
#	185882
#	205347
#	222937
#	236325
#	251110
#
# Disc length: 3566 seconds
#
# Revision: 0
# Processed by: cddbd v1.5.1PL0 Copyright (c) Steve Scherf et al.
# Submitted via: dBpowerAMP V4.0
#
DISCID=ec0dec10
DTITLE=Dave Sheriff - Western Dance with Dave Sheriff
DYEAR=1996
DGENRE=Country
TTITLE0=Back Seat Boogie
TTITLE1=Playa Silencio
TTITLE2=One Good Woman
TTITLE3=Mum Second To None
TTITLE4=You, The Moon and The Mills and Boon
TTITLE5=Unforgotten Hero
TTITLE6=Dreaming
TTITLE7=Baby's Two Step
TTITLE8=The Times We've Had
TTITLE9=He Likes To Get Drunk
TTITLE10=Let's Give Thanks
TTITLE11=Our Song
TTITLE12=Strut Your Stuff
TTITLE13=Cajun Jamboree
TTITLE14=Walking The Line
TTITLE15=Alamo
EXTD=
EXTT0=
EXTT1=
EXTT2=
EXTT3=
EXTT4=
EXTT5=
EXTT6=
EXTT7=
EXTT8=
EXTT9=
EXTT10=
EXTT11=
EXTT12=
EXTT13=
EXTT14=
EXTT15=
PLAYORDER=
